<svg xmlns="http://www.w3.org/2000/svg" width="1024" height="1024" viewBox="0 0 1024 1024">
  <defs>
    <linearGradient id="bg" x1="0" y1="0" x2="1" y2="1">
      <stop offset="0" stop-color="#19b6c8"/>
      <stop offset="1" stop-color="#173a73"/>
    </linearGradient>
    <linearGradient id="accent" x1="0" y1="0" x2="1" y2="1">
      <stop offset="0" stop-color="#f05a8e"/>
      <stop offset="1" stop-color="#b31349"/>
    </linearGradient>
    <filter id="shadow" x="-20%" y="-20%" width="140%" height="140%">
      <feDropShadow dx="0" dy="22" stdDeviation="22" flood-color="#173a73" flood-opacity="0.22"/>
    </filter>
  </defs>

  <rect width="1024" height="1024" rx="220" fill="#f7fbff"/>

  <g filter="url(#shadow)">
    <circle cx="512" cy="512" r="398" fill="url(#bg)"/>
    <circle cx="512" cy="512" r="346" fill="none" stroke="#ffffff" stroke-width="26" opacity="0.22"/>
  </g>

  <g fill="#ffffff">
    <circle cx="512" cy="360" r="112"/>
    <path d="M292 742c18-134 111-229 220-229s202 95 220 229c5 37-25 70-62 70H354c-37 0-67-33-62-70z"/>
  </g>

  <g transform="translate(622 622)" filter="url(#shadow)">
    <circle cx="92" cy="92" r="112" fill="#ffffff"/>
    <circle cx="92" cy="92" r="90" fill="url(#accent)"/>
    <rect x="74" y="38" width="36" height="108" rx="14" fill="#ffffff"/>
    <rect x="38" y="74" width="108" height="36" rx="14" fill="#ffffff"/>
  </g>
</svg>
