<svg xmlns="http://www.w3.org/2000/svg" width="720" height="560" viewBox="0 0 720 560">
  <defs>
    <linearGradient id="grad" x1="0" y1="0" x2="1" y2="1">
      <stop offset="0" stop-color="#12a7c7"/>
      <stop offset="1" stop-color="#173a73"/>
    </linearGradient>
    <filter id="shadow" x="-20%" y="-20%" width="140%" height="140%">
      <feDropShadow dx="0" dy="18" stdDeviation="18" flood-color="#173a73" flood-opacity="0.18"/>
    </filter>
  </defs>
  <rect x="32" y="32" width="656" height="496" rx="46" fill="#ffffff" stroke="#dbe7f4" stroke-width="4" filter="url(#shadow)"/>
  <circle cx="360" cy="238" r="166" fill="url(#grad)"/>
  <circle cx="360" cy="238" r="132" fill="none" stroke="#ffffff" stroke-width="14" opacity="0.2"/>
  <g transform="translate(88 -10)">
      <circle cx="242" cy="176" r="46" fill="#ffffff"/>
      <path d="M152 350c10-72 62-124 124-124s114 52 124 124c3 21-13 40-34 40H186c-21 0-37-19-34-40z" fill="#ffffff"/>
      <circle cx="148" cy="208" r="36" fill="#ffffff" opacity="0.82"/>
      <path d="M82 368c8-54 46-94 92-98c-22 26-38 58-45 95c-2 10-1 19 2 28H112c-19 0-33-17-30-35z" fill="#ffffff" opacity="0.82"/>
      <circle cx="390" cy="208" r="36" fill="#ffffff" opacity="0.82"/>
      <path d="M428 393h-19c3-9 4-18 2-28c-7-37-23-69-45-95c46 4 84 44 92 98c3 18-11 35-30 35z" fill="#ffffff" opacity="0.82"/>
  </g>
  <text x="360" y="456" text-anchor="middle" font-family="Segoe UI, Arial, sans-serif" font-size="38" font-weight="800" fill="#173a73">Utilisateurs</text>
  <text x="360" y="500" text-anchor="middle" font-family="Segoe UI, Arial, sans-serif" font-size="24" font-weight="500" fill="#5f7189">Patients + professionnels</text>
</svg>
