<svg xmlns="http://www.w3.org/2000/svg" width="720" height="560" viewBox="0 0 720 560">
  <defs>
    <linearGradient id="grad" x1="0" y1="0" x2="1" y2="1">
      <stop offset="0" stop-color="#16a085"/>
      <stop offset="1" stop-color="#0f766e"/>
    </linearGradient>
    <filter id="shadow" x="-20%" y="-20%" width="140%" height="140%">
      <feDropShadow dx="0" dy="18" stdDeviation="18" flood-color="#173a73" flood-opacity="0.18"/>
    </filter>
  </defs>
  <rect x="32" y="32" width="656" height="496" rx="46" fill="#ffffff" stroke="#dbe7f4" stroke-width="4" filter="url(#shadow)"/>
  <circle cx="360" cy="238" r="166" fill="url(#grad)"/>
  <circle cx="360" cy="238" r="132" fill="none" stroke="#ffffff" stroke-width="14" opacity="0.2"/>
  <g transform="translate(88 -10)">
      <path d="M132 148V98h70M342 98h70v50M412 322v50h-70M202 372h-70v-50" fill="none" stroke="#ffffff" stroke-width="20" stroke-linecap="round"/>
      <rect x="170" y="170" width="204" height="132" rx="24" fill="#ffffff" opacity="0.96"/>
      <path d="M206 204h20v64h-20zM244 204h10v64h-10zM274 204h28v64h-28zM322 204h12v64h-12" fill="#173a73"/>
      <line x1="142" y1="236" x2="402" y2="236" stroke="#b31349" stroke-width="10" stroke-linecap="round"/>
  </g>
  <text x="360" y="456" text-anchor="middle" font-family="Segoe UI, Arial, sans-serif" font-size="38" font-weight="800" fill="#173a73">Application scanner</text>
  <text x="360" y="500" text-anchor="middle" font-family="Segoe UI, Arial, sans-serif" font-size="24" font-weight="500" fill="#5f7189">Scan code-barres</text>
</svg>
