<svg xmlns="http://www.w3.org/2000/svg" width="720" height="560" viewBox="0 0 720 560">
  <defs>
    <linearGradient id="grad" x1="0" y1="0" x2="1" y2="1">
      <stop offset="0" stop-color="#2d7ecb"/>
      <stop offset="1" stop-color="#123c69"/>
    </linearGradient>
    <filter id="shadow" x="-20%" y="-20%" width="140%" height="140%">
      <feDropShadow dx="0" dy="18" stdDeviation="18" flood-color="#173a73" flood-opacity="0.18"/>
    </filter>
  </defs>
  <rect x="32" y="32" width="656" height="496" rx="46" fill="#ffffff" stroke="#dbe7f4" stroke-width="4" filter="url(#shadow)"/>
  <circle cx="360" cy="238" r="166" fill="url(#grad)"/>
  <circle cx="360" cy="238" r="132" fill="none" stroke="#ffffff" stroke-width="14" opacity="0.2"/>
  <g transform="translate(88 -10)">
      <ellipse cx="272" cy="128" rx="126" ry="52" fill="#ffffff"/>
      <path d="M146 128v204c0 29 56 52 126 52s126-23 126-52V128" fill="#ffffff"/>
      <path d="M146 196c0 29 56 52 126 52s126-23 126-52M146 264c0 29 56 52 126 52s126-23 126-52M146 332c0 29 56 52 126 52s126-23 126-52" fill="none" stroke="#173a73" stroke-width="10" opacity="0.35"/>
  </g>
  <text x="360" y="456" text-anchor="middle" font-family="Segoe UI, Arial, sans-serif" font-size="38" font-weight="800" fill="#173a73">Base de données</text>
  <text x="360" y="500" text-anchor="middle" font-family="Segoe UI, Arial, sans-serif" font-size="24" font-weight="500" fill="#5f7189">MySQL / Port 3306</text>
</svg>
