<svg xmlns="http://www.w3.org/2000/svg" width="720" height="560" viewBox="0 0 720 560">
  <defs>
    <linearGradient id="grad" x1="0" y1="0" x2="1" y2="1">
      <stop offset="0" stop-color="#f2a93b"/>
      <stop offset="1" stop-color="#b86608"/>
    </linearGradient>
    <filter id="shadow" x="-20%" y="-20%" width="140%" height="140%">
      <feDropShadow dx="0" dy="18" stdDeviation="18" flood-color="#173a73" flood-opacity="0.18"/>
    </filter>
  </defs>
  <rect x="32" y="32" width="656" height="496" rx="46" fill="#ffffff" stroke="#dbe7f4" stroke-width="4" filter="url(#shadow)"/>
  <circle cx="360" cy="238" r="166" fill="url(#grad)"/>
  <circle cx="360" cy="238" r="132" fill="none" stroke="#ffffff" stroke-width="14" opacity="0.2"/>
  <g transform="translate(88 -10)">
      <path d="M112 164c0-24 19-44 44-44h92l34 42h118c24 0 44 20 44 44v184c0 25-20 44-44 44H156c-25 0-44-19-44-44z" fill="#ffffff"/>
      <path d="M112 218h332v172c0 25-20 44-44 44H156c-25 0-44-19-44-44z" fill="#fff4df"/>
      <path d="M196 286h150M196 328h112" stroke="#b86608" stroke-width="16" stroke-linecap="round"/>
  </g>
  <text x="360" y="456" text-anchor="middle" font-family="Segoe UI, Arial, sans-serif" font-size="38" font-weight="800" fill="#173a73">Stockage fichiers</text>
  <text x="360" y="500" text-anchor="middle" font-family="Segoe UI, Arial, sans-serif" font-size="24" font-weight="500" fill="#5f7189">Ordonnances PDF + logs</text>
</svg>
