<svg xmlns="http://www.w3.org/2000/svg" width="720" height="560" viewBox="0 0 720 560">
  <defs>
    <linearGradient id="grad" x1="0" y1="0" x2="1" y2="1">
      <stop offset="0" stop-color="#ffca28"/>
      <stop offset="1" stop-color="#f57c00"/>
    </linearGradient>
    <filter id="shadow" x="-20%" y="-20%" width="140%" height="140%">
      <feDropShadow dx="0" dy="18" stdDeviation="18" flood-color="#173a73" flood-opacity="0.18"/>
    </filter>
  </defs>
  <rect x="32" y="32" width="656" height="496" rx="46" fill="#ffffff" stroke="#dbe7f4" stroke-width="4" filter="url(#shadow)"/>
  <circle cx="360" cy="238" r="166" fill="url(#grad)"/>
  <circle cx="360" cy="238" r="132" fill="none" stroke="#ffffff" stroke-width="14" opacity="0.2"/>
  <g transform="translate(88 -10)">
      <path d="M272 396c32 0 58-22 64-52H208c6 30 32 52 64 52z" fill="#ffffff"/>
      <path d="M158 328h228c-26-26-34-58-34-108c0-45-31-83-72-93v-15c0-15-12-28-28-28s-28 13-28 28v15c-41 10-72 48-72 93c0 50-8 82-34 108z" fill="#ffffff"/>
      <path d="M194 332h156" stroke="#173a73" stroke-width="14" stroke-linecap="round" opacity="0.35"/>
  </g>
  <text x="360" y="456" text-anchor="middle" font-family="Segoe UI, Arial, sans-serif" font-size="38" font-weight="800" fill="#173a73">Firebase FCM</text>
  <text x="360" y="500" text-anchor="middle" font-family="Segoe UI, Arial, sans-serif" font-size="24" font-weight="500" fill="#5f7189">Notifications push</text>
</svg>
