<svg xmlns="http://www.w3.org/2000/svg" width="720" height="560" viewBox="0 0 720 560">
  <defs>
    <linearGradient id="grad" x1="0" y1="0" x2="1" y2="1">
      <stop offset="0" stop-color="#b31349"/>
      <stop offset="1" stop-color="#5f1230"/>
    </linearGradient>
    <filter id="shadow" x="-20%" y="-20%" width="140%" height="140%">
      <feDropShadow dx="0" dy="18" stdDeviation="18" flood-color="#173a73" flood-opacity="0.18"/>
    </filter>
  </defs>
  <rect x="32" y="32" width="656" height="496" rx="46" fill="#ffffff" stroke="#dbe7f4" stroke-width="4" filter="url(#shadow)"/>
  <circle cx="360" cy="238" r="166" fill="url(#grad)"/>
  <circle cx="360" cy="238" r="132" fill="none" stroke="#ffffff" stroke-width="14" opacity="0.2"/>
  <g transform="translate(88 -10)">
      <path d="M226 130c-46 0-84 36-84 82c0 7 1 14 3 21c-27 14-45 42-45 74c0 46 37 84 84 84h176c47 0 84-38 84-84c0-32-18-60-45-74c2-7 3-14 3-21c0-46-38-82-84-82c-18 0-35 6-48 16c-13-10-30-16-44-16z" fill="#ffffff"/>
      <path d="M214 190v144M272 166v190M330 196v138M172 264h200" stroke="#b31349" stroke-width="13" stroke-linecap="round" opacity="0.78"/>
  </g>
  <text x="360" y="456" text-anchor="middle" font-family="Segoe UI, Arial, sans-serif" font-size="38" font-weight="800" fill="#173a73">Groq / LLM</text>
  <text x="360" y="500" text-anchor="middle" font-family="Segoe UI, Arial, sans-serif" font-size="24" font-weight="500" fill="#5f7189">Assistant IA</text>
</svg>
