<svg xmlns="http://www.w3.org/2000/svg" width="720" height="560" viewBox="0 0 720 560">
  <defs>
    <linearGradient id="grad" x1="0" y1="0" x2="1" y2="1">
      <stop offset="0" stop-color="#42b883"/>
      <stop offset="1" stop-color="#1b7f5a"/>
    </linearGradient>
    <filter id="shadow" x="-20%" y="-20%" width="140%" height="140%">
      <feDropShadow dx="0" dy="18" stdDeviation="18" flood-color="#173a73" flood-opacity="0.18"/>
    </filter>
  </defs>
  <rect x="32" y="32" width="656" height="496" rx="46" fill="#ffffff" stroke="#dbe7f4" stroke-width="4" filter="url(#shadow)"/>
  <circle cx="360" cy="238" r="166" fill="url(#grad)"/>
  <circle cx="360" cy="238" r="132" fill="none" stroke="#ffffff" stroke-width="14" opacity="0.2"/>
  <g transform="translate(88 -10)">
      <path d="M272 96c-70 0-126 56-126 126c0 94 126 222 126 222s126-128 126-222c0-70-56-126-126-126z" fill="#ffffff"/>
      <circle cx="272" cy="222" r="48" fill="#42b883"/>
      <path d="M176 394l-64 36M368 394l64 36" stroke="#ffffff" stroke-width="18" stroke-linecap="round" opacity="0.75"/>
  </g>
  <text x="360" y="456" text-anchor="middle" font-family="Segoe UI, Arial, sans-serif" font-size="38" font-weight="800" fill="#173a73">OpenStreetMap</text>
  <text x="360" y="500" text-anchor="middle" font-family="Segoe UI, Arial, sans-serif" font-size="24" font-weight="500" fill="#5f7189">Géolocalisation</text>
</svg>
